<svg width="66" height="67" viewBox="0 0 66 67" fill="none" xmlns="http://www.w3.org/2000/svg">
<path fill-rule="evenodd" clip-rule="evenodd" d="M32.9319 25.6316L39.766 37.4884L26.2495 37.5199L32.9319 25.6316ZM31.4331 25.6505C30.3308 25.9055 29.3987 26.3055 28.6184 26.844C27.4788 27.6282 27.3674 27.8801 26.5932 28.8627C24.6703 31.3033 24.5681 35.1454 26.4074 37.9986C28.061 40.562 31.4115 42.0831 34.6381 41.4312C38.7751 40.5935 41.6239 36.1815 40.7631 31.8607C40.0168 28.1257 36.047 24.5829 31.4331 25.6505Z" fill="#E57817"/>
<path fill-rule="evenodd" clip-rule="evenodd" d="M26.2495 37.5199L39.766 37.4884L32.9319 25.6316L26.2495 37.5199Z" fill="white"/>
<path fill-rule="evenodd" clip-rule="evenodd" d="M48.7522 53.2125C45.6154 53.2125 43.2899 50.4601 39.5833 52.3527C38.3942 52.9605 38.4128 52.9007 38.0505 54.2706C37.7439 55.4327 36.6385 58.6669 36.5641 59.5613C37.6944 59.5613 36.9326 59.4259 38.7565 57.5584C40.4503 55.82 42.7851 55.5933 44.7143 56.8687C46.1387 57.8104 45.8074 58.0497 46.9717 58.0497C51.121 58.0497 55.9455 53.1338 56.187 50.1892C55.7132 50.5104 55.3695 50.9513 54.809 51.3576C53.1957 52.5323 50.9817 53.2125 48.7522 53.2125Z" fill="white"/>
<path fill-rule="evenodd" clip-rule="evenodd" d="M24.2275 11.0349C23.1313 11.0349 22.45 10.8491 21.5985 10.383C20.4837 9.77206 20.2917 9.38785 19.8768 9.09812C18.8549 8.3864 14.9316 10.0744 13.4205 11.3813C11.9837 12.6284 9.96781 14.9903 9.80679 16.9303C10.2899 16.6027 10.5376 16.2185 11.0764 15.8028C12.9622 14.351 15.0895 13.907 17.5358 13.907C20.4218 13.907 22.4067 16.3571 26.0792 14.8833C28.1477 14.055 27.8442 12.9024 28.8537 9.69333C29.0116 9.19575 29.3832 8.13131 29.4297 7.55815C28.253 7.27787 29.2191 7.64318 27.2404 9.56421C26.5932 10.1941 25.4103 11.0349 24.2275 11.0349Z" fill="white"/>
<path fill-rule="evenodd" clip-rule="evenodd" d="M10.8472 42.3288C10.8472 43.5853 10.776 44.1711 10.101 45.3489L8.87164 47.1061C8.57437 48.0068 9.54978 50.6868 10.0824 51.726C11.3272 54.1541 14.0336 56.5255 16.6471 57.1459C16.0433 56.2263 15.4332 56.0216 14.6127 54.2265C11.4635 47.336 17.1859 45.0623 14.2658 39.7621C13.6651 38.6694 13.1851 38.9024 11.4975 38.3418L8.29568 37.3435C7.88074 37.2018 7.60514 36.9782 7.36981 37.4349C7.08802 37.9765 7.6423 37.8128 8.723 38.7449C9.55288 39.4598 10.8472 40.8833 10.8472 42.3288Z" fill="white"/>
<path fill-rule="evenodd" clip-rule="evenodd" d="M52.3194 16.7791C52.3194 18.7694 52.2637 19.0875 51.5979 20.8825C50.8609 22.8665 50.477 24.838 51.474 26.8598C51.9974 27.921 52.2575 28.0754 53.3908 28.3871C55.1589 28.8721 56.8032 29.5146 58.5621 29.9303C58.6023 29.461 58.559 29.6437 58.7107 29.3256C55.9671 27.455 53.9977 25.5497 55.834 21.8651C56.0848 21.3644 56.0972 21.3644 56.4161 20.9455C56.636 20.6526 56.9859 20.3094 57.085 20.1047C57.5154 19.2166 56.444 16.376 55.9393 15.3682L54.069 12.7355C52.4464 11.0821 51.1334 10.7924 49.3467 9.82874C49.5015 10.4082 52.3194 12.6315 52.3194 16.7791Z" fill="white"/>
<path fill-rule="evenodd" clip-rule="evenodd" d="M16.7926 50.0381C16.7926 52.1071 16.7586 53.096 17.6844 54.8753C19.5362 54.8753 20.4651 54.2486 22.3386 54.9792C24.1005 55.6657 24.7755 57.2277 25.1533 58.9189C25.2493 59.3503 25.1998 59.6653 25.2803 60.1502C25.4475 61.1139 27.5594 62.1437 28.3397 62.4807C28.9992 62.7641 29.9282 62.9278 30.467 63.1892C30.4515 62.531 29.9251 61.032 29.7424 60.4494C28.5255 56.579 28.4635 52.8818 24.5433 51.5276C21.9917 50.6459 19.5238 52.0882 18.3966 50.5199C18.0467 50.0349 17.446 48.6556 17.3841 47.9218H17.0899C17.028 48.7122 16.7926 49.0744 16.7926 50.0381Z" fill="white"/>
<path fill-rule="evenodd" clip-rule="evenodd" d="M50.3872 44.1427C50.3872 46.4605 50.8114 47.4746 49.7586 48.3406C49.2879 48.728 47.8635 49.3704 47.1172 49.4334C47.8201 50.4097 52.2637 50.2333 54.103 48.9799C53.2608 45.3079 54.0132 41.976 58.3051 41.4627C59.4136 41.3304 59.3176 41.6107 59.9431 40.8612C60.9681 39.6362 61.767 37.7277 62.1324 36.1311C61.383 36.1468 55.6173 37.9671 54.4932 38.3387C52.0686 39.1417 50.3872 41.3871 50.3872 44.1427Z" fill="white"/>
<path fill-rule="evenodd" clip-rule="evenodd" d="M11.8877 17.9884C12.7485 21.7486 12.0673 24.9671 7.6423 25.6127C6.34794 25.8016 6.36342 25.5371 5.13409 27.5967C4.52407 28.617 4.15248 29.713 3.8614 30.9884L11.3489 28.7745C12.7145 28.3714 13.5258 27.7573 14.2937 26.781C17.5358 22.6681 13.3245 19.5913 17.5575 18.0073C18.1149 17.7994 18.5731 17.8026 18.8766 17.3837C17.8238 17.2956 16.9475 16.8295 15.2846 17.0499C13.8261 17.2452 12.925 17.431 11.8877 17.9884Z" fill="white"/>
<path fill-rule="evenodd" clip-rule="evenodd" d="M43.2527 15.8721C46.0582 15.8721 47.2937 15.0565 48.2165 17.7805C48.4023 18.3317 48.5168 18.9111 48.9039 19.1977C49.0433 17.4782 49.5418 16.1272 48.938 13.7212C48.7057 12.7953 48.4487 12.6284 48.3094 12.093C46.2966 12.2631 41.7602 13.7401 40.8095 7.92976C40.6206 6.77084 40.9798 6.93145 40.2552 6.22602C39.1095 5.1049 37.1432 4.31444 35.5237 3.93024C35.5423 4.72699 37.425 10.7074 37.6944 11.5482C38.5305 14.14 40.7569 15.8721 43.2527 15.8721Z" fill="white"/>
<path fill-rule="evenodd" clip-rule="evenodd" d="M28.5193 41.0754C28.8971 41.2234 28.6153 40.8612 28.7887 41.2832C27.9402 42.4547 27.3581 44.3222 26.5065 45.5032C26.8502 46.1519 29.4297 55.1871 29.7424 56.2169C30.0304 57.1648 32.7801 66.181 32.8452 66.9683L33.1424 66.5148L33.0898 53.625C32.7616 53.4077 29.1014 41.3651 29.1819 40.9746L28.8506 40.7384C28.7453 41.0187 28.8289 40.9337 28.5193 41.0754Z" fill="#E57817"/>
<path fill-rule="evenodd" clip-rule="evenodd" d="M32.7306 0.604652C33.0588 1.06444 32.9443 1.35732 32.935 2.11313C32.9288 2.6674 32.9319 3.22481 32.9319 3.77907C32.9319 5.99613 33.0588 12.1214 32.8699 13.5448C33.2632 13.7527 32.9504 13.1039 33.4954 14.9053C33.675 15.5005 33.8175 15.9666 33.9909 16.5177C34.6659 18.6718 36.6168 24.6364 36.8986 26.126L37.01 26.2394L37.3816 26.0095C37.106 25.8583 37.3909 26.2803 37.202 25.8111C37.6479 25.0741 38.0907 24.2207 38.4252 23.509C38.7936 22.7217 39.1714 21.8997 39.7907 21.4683H39.3882C39.1776 20.555 38.868 19.7173 38.614 18.7788C37.7904 15.7461 33.2384 1.12742 33.1455 0C32.6903 0.336967 33 -0.0535368 32.7306 0.604652Z" fill="#E57817"/>
<path fill-rule="evenodd" clip-rule="evenodd" d="M0.888712 33.8636C0.640987 33.5172 0.439711 33.5676 1.91987 33.5959L13.0737 33.6621C13.213 33.2306 12.7671 33.7818 13.2564 33.4322C13.3988 33.3283 13.5041 33.2999 13.662 33.2464C13.9159 33.1614 14.1884 33.1047 14.4764 33.0165C16.7771 32.3174 24.6021 29.798 25.6983 29.6468C25.9368 29.3445 25.6643 29.9743 25.9244 29.2878L25.7819 29.2815C25.0635 29.124 23.9797 28.4722 23.2304 28.0722C22.8123 27.8486 22.4686 27.666 22.0599 27.4487C21.3941 27.0991 21.4777 27.2125 21.1092 26.6582V27.0613C20.2701 27.2597 19.369 27.6061 18.4864 27.8707L2.694 32.6732C2.02824 32.8811 0.718401 33.3503 0 33.4101C0.318945 33.8573 0.27869 33.6747 0.888712 33.8636Z" fill="#E57817"/>
<path fill-rule="evenodd" clip-rule="evenodd" d="M53.0657 33.4416C52.7282 33.8101 41.5744 37.2459 40.3172 37.4191C40.1995 37.5451 40.1345 37.501 40.0632 37.8033L40.2398 37.7939C41.5775 38.0175 43.4633 39.6928 44.8908 40.0015L44.7421 40.0645L64.7552 33.9644C65.3807 33.7817 65.6811 33.851 65.9969 33.4133C65.5046 33.3723 65.5324 33.3283 65.1051 33.111C64.7304 33.6337 65.3404 33.3629 64.3743 33.4983L62.1324 33.4826C59.6149 33.4826 55.1775 33.5959 53.0657 33.4416Z" fill="#E57817"/>
<path fill-rule="evenodd" clip-rule="evenodd" d="M26.9029 21.1659C26.5901 22.032 27.42 22.8445 27.7761 23.6129C28.0362 24.1735 28.6029 25.5591 29.1293 25.852L32.873 13.5448C33.065 12.1214 32.935 5.99612 32.935 3.77907C32.935 3.2248 32.9319 2.66739 32.9381 2.11312C32.9474 1.35416 33.0619 1.06443 32.7337 0.604645L27.1351 19.7393C26.9462 20.3912 26.7109 20.5896 26.9029 21.1659Z" fill="#FDF300"/>
<path fill-rule="evenodd" clip-rule="evenodd" d="M40.4627 29.6311L53.0626 33.4416C55.1775 33.5991 59.6118 33.4857 62.1293 33.4857L64.3712 33.5015C65.3373 33.3661 64.7273 33.6369 65.102 33.1141C64.557 33.111 60.9681 31.9773 60.2156 31.7316C58.6085 31.2088 56.8713 30.6861 55.1744 30.2074C54.4436 29.9995 53.5735 29.713 52.7839 29.4642L47.7427 27.9399C47.0738 27.751 45.9033 27.1211 45.1849 27.3668C44.3086 27.0865 43.4013 27.8833 42.6582 28.2832C42.1101 28.5729 40.6918 29.1335 40.4627 29.6311Z" fill="#FDF300"/>
<path fill-rule="evenodd" clip-rule="evenodd" d="M33.0929 53.6282L33.1455 66.518C33.3499 66.3322 33.8082 64.5403 33.9228 64.1309L36.2359 56.3554C36.4929 55.4232 39.2891 46.5141 39.1652 45.8055C39.2705 45.1001 38.5057 43.9475 38.1403 43.2893C37.812 42.7004 37.2794 41.3997 36.9017 41.1635L33.0929 53.6282Z" fill="#FDF300"/>
<path fill-rule="evenodd" clip-rule="evenodd" d="M0.888708 33.8636L18.4121 39.1732C19.1027 39.3968 20.3382 39.9731 20.9575 39.7622C21.5458 39.8472 22.7535 39.1355 23.3202 38.83C23.7413 38.6001 24.0726 38.4206 24.4876 38.2033C25.0418 37.9104 25.2896 37.8695 25.5683 37.4475L13.0737 33.6652L1.91986 33.5991C0.439708 33.5676 0.640984 33.5172 0.888708 33.8636Z" fill="#FDF300"/>
<path fill-rule="evenodd" clip-rule="evenodd" d="M40.3172 37.4191C41.5744 37.2428 52.7282 33.8101 53.0657 33.4416L40.4658 29.6311L40.311 29.6342C40.7847 31.0608 41.2183 31.6938 41.2152 33.5613C41.209 35.2934 40.8157 36.0712 40.3172 37.4191Z" fill="#FEFEFF"/>
<path fill-rule="evenodd" clip-rule="evenodd" d="M13.0737 33.6621L25.5683 37.4443L25.689 37.4286C25.2122 36.0429 24.791 35.3375 24.7879 33.5645C24.7848 31.7096 25.2369 31.0545 25.6983 29.6468C24.6052 29.798 16.7771 32.3174 14.4764 33.0165C14.1884 33.1047 13.9159 33.1614 13.662 33.2464C13.5072 33.2968 13.3988 33.3283 13.2564 33.4322C12.7671 33.7818 13.213 33.2306 13.0737 33.6621Z" fill="#FEFEFF"/>
<path fill-rule="evenodd" clip-rule="evenodd" d="M29.1262 25.852L29.0952 26.1323C30.4608 25.6882 31.2164 25.1875 32.9969 25.1875C34.8827 25.1844 35.4772 25.6662 36.9017 26.1291C36.6168 24.6427 34.669 18.6781 33.994 16.5208C33.8206 15.9697 33.6781 15.5005 33.4985 14.9084C32.9536 13.1071 33.2663 13.7558 32.873 13.548L29.1262 25.852Z" fill="#FEFEFF"/>
<path fill-rule="evenodd" clip-rule="evenodd" d="M33.0929 53.6282L36.9017 41.1635L36.8119 40.9809C33.576 42.1209 32.4829 42.3225 29.185 40.9777C29.1045 41.3682 32.7647 53.4109 33.0929 53.6282Z" fill="#FEFEFF"/>
<path fill-rule="evenodd" clip-rule="evenodd" d="M19.2915 19.9567L19.2265 19.6827C19.7901 20.4322 21.0411 21.588 21.7471 22.328C22.4872 23.0996 23.5091 24.4223 24.3823 24.9387C25.0666 24.9545 28.4264 25.9339 28.9838 26.2488L29.0921 26.1354L29.1231 25.8552C28.5998 25.5591 28.03 24.1766 27.7699 23.6161C27.4169 22.8477 26.5839 22.0352 26.8967 21.1691C26.5282 21.3266 26.5994 20.9172 26.5994 21.4714C25.7695 21.4022 19.8923 19.3741 19.0191 19.3552C19.0252 20.4039 18.9757 19.6764 19.2915 19.9567Z" fill="#E57817"/>
<path fill-rule="evenodd" clip-rule="evenodd" d="M36.8119 40.9809L36.9017 41.1635C37.2794 41.3997 37.8151 42.6972 38.1403 43.2893C38.5057 43.9506 39.2705 45.1032 39.1652 45.8055C39.4439 45.648 39.3882 46.0574 39.3882 45.5032C39.9301 45.7677 40.6051 45.9063 41.1904 46.0889C41.8654 46.2999 42.4228 46.4417 43.1567 46.6589C43.8379 46.8605 44.321 47.0211 44.9837 47.2195C45.572 47.3959 46.4483 47.7265 46.9686 47.7706C46.9686 46.6212 47.0026 47.2825 46.6713 47.0148L46.0829 46.7062C45.1106 45.9063 42.4909 43.0184 41.6053 42.0579C41.2709 42.2343 40.7878 42.0138 40.4132 41.891C39.8589 41.7115 37.3414 41.2265 37.1463 40.7478L36.8119 40.9809Z" fill="#E57817"/>
<path fill-rule="evenodd" clip-rule="evenodd" d="M20.9575 39.759C21.1928 40.5809 20.3475 42.7822 20.0843 43.7081C19.8892 44.3947 19.6693 45.0812 19.5021 45.6858C19.3194 46.3535 19.0407 47.04 19.0252 47.7706C19.53 47.7265 19.6074 47.7297 19.9171 47.3549C19.3535 47.4998 19.7189 47.525 19.3968 47.251L23.893 42.8956C24.0138 42.7728 24.085 42.713 24.1903 42.5902C24.212 42.5681 24.2429 42.5272 24.2615 42.5051L24.3916 42.3225C24.4009 42.2689 24.4349 42.2595 24.4535 42.2248C24.4783 41.5037 25.5249 38.0868 25.9399 37.7876C25.8624 37.4947 25.8005 37.5419 25.689 37.4254L25.5683 37.4412C25.2896 37.8632 25.0419 37.9041 24.4876 38.197C24.0726 38.4143 23.7444 38.5969 23.3202 38.8237C22.7504 39.1354 21.5427 39.844 20.9575 39.759Z" fill="#E57817"/>
<path fill-rule="evenodd" clip-rule="evenodd" d="M41.1873 24.9482C41.9429 24.7876 41.3917 24.8506 41.6022 25.1529C41.0387 26.148 40.7631 28.595 40.0571 29.2658L40.3048 29.6311L40.4596 29.6279C40.6888 29.1304 42.107 28.5698 42.6551 28.2769C43.3982 27.877 44.3024 27.0802 45.1819 27.3605C45.027 26.9857 45.4296 27.0582 44.8846 27.0582C44.9496 26.252 46.9438 20.344 46.9655 19.3489C45.9188 19.3489 46.6527 19.289 46.3709 19.6449L46.662 19.6323C45.8259 20.3062 44.7948 21.5344 43.9959 22.3753C42.9338 23.4995 42.364 24.3089 41.1873 24.9482Z" fill="#E57817"/>
<path fill-rule="evenodd" clip-rule="evenodd" d="M39.7938 21.4683C39.1745 21.8966 38.7937 22.7217 38.4283 23.509C38.0938 24.2239 37.651 25.0773 37.2051 25.8111C37.394 26.2835 37.106 25.8583 37.3847 26.0095L41.1904 24.9482C42.3671 24.3089 42.9338 23.4964 44.0021 22.3753C44.801 21.5344 45.8321 20.3062 46.6682 19.6323L46.3771 19.6449C45.8724 19.4811 45.25 19.7772 44.7236 19.9346C44.16 20.1047 43.6522 20.2495 43.1072 20.407C42.268 20.6463 40.4472 21.0746 39.7938 21.4683Z" fill="#FDF300"/>
<path fill-rule="evenodd" clip-rule="evenodd" d="M24.4504 42.228C24.4318 42.2626 24.3978 42.2721 24.3885 42.3256L24.2584 42.5083C24.2398 42.5303 24.2089 42.5681 24.1872 42.5933C24.0819 42.713 24.0107 42.7759 23.8899 42.8988L19.3937 47.2541C19.7158 47.5281 19.3504 47.5029 19.914 47.3581C20.5054 47.4998 22.5956 46.7597 23.314 46.5456C23.8806 46.3787 26.1845 45.7551 26.5065 45.5063C27.355 44.3254 27.9402 42.461 28.7887 41.2864C28.6122 40.8612 28.8971 41.2234 28.5193 41.0785L24.4504 42.228Z" fill="#FDF300"/>
<path fill-rule="evenodd" clip-rule="evenodd" d="M41.6084 42.0579C42.4971 43.0184 45.1137 45.9063 46.086 46.7062L46.6744 47.0148C46.8602 46.4511 45.1354 40.625 44.7421 40.0613L44.8908 39.9983C43.4633 39.6897 41.5775 38.0143 40.2397 37.7907L41.6084 42.0579Z" fill="#FDF300"/>
<path fill-rule="evenodd" clip-rule="evenodd" d="M4.75321 21.0148C4.75321 24.2238 10.1041 24.6112 10.1041 20.8636C10.1041 17.2892 4.75321 17.1948 4.75321 21.0148Z" fill="white"/>
<path fill-rule="evenodd" clip-rule="evenodd" d="M55.8897 46.259C55.8897 49.7798 61.2406 49.7389 61.2406 46.259C61.2406 42.6657 55.8897 42.5838 55.8897 46.259Z" fill="white"/>
<path fill-rule="evenodd" clip-rule="evenodd" d="M42.8068 7.40698C42.8068 11.438 48.1576 10.9152 48.1576 7.55814C48.1576 6.91255 47.7241 5.99612 47.3711 5.63711C45.7083 3.95542 42.8068 5.16158 42.8068 7.40698Z" fill="white"/>
<path fill-rule="evenodd" clip-rule="evenodd" d="M21.1061 6.0465C21.1061 10.0649 26.426 9.60198 26.426 6.19767C26.426 2.71777 21.1061 2.62959 21.1061 6.0465Z" fill="white"/>
<path fill-rule="evenodd" clip-rule="evenodd" d="M44.8877 61.2273V60.4715C44.8877 58.141 40.8807 57.0766 39.7907 59.8227C38.6048 62.8082 42.4693 64.7827 44.2591 62.7011C44.4882 62.4366 44.8877 61.6745 44.8877 61.2273Z" fill="white"/>
<path fill-rule="evenodd" clip-rule="evenodd" d="M3.4155 42.7822C3.4155 45.4843 6.36033 46.5172 7.99221 44.867C10.3084 42.5272 7.06944 38.4993 4.3166 40.9777C3.80877 41.4375 3.4155 42.3162 3.4155 42.7822Z" fill="white"/>
<path fill-rule="evenodd" clip-rule="evenodd" d="M17.8331 59.5645C17.8331 60.5155 18.6134 61.6178 19.4619 61.9894C21.4158 62.8428 23.1839 61.4131 23.1839 59.4133C23.1839 56.9569 20.075 55.987 18.5329 57.7064C18.1954 58.078 17.8331 58.922 17.8331 59.5645Z" fill="white"/>
<path fill-rule="evenodd" clip-rule="evenodd" d="M19.2915 19.9566C19.146 20.5455 19.4371 21.1281 19.6012 21.6383C19.7777 22.1957 19.9171 22.7343 20.0657 23.2822C20.301 24.1357 20.7253 25.978 21.1061 26.6582C21.4715 27.2125 21.391 27.0991 22.0568 27.4486C22.4655 27.6628 22.8061 27.8486 23.2273 28.0722C23.9766 28.4721 25.0604 29.124 25.7788 29.2815L24.3885 24.9356C23.5122 24.4222 22.4903 23.0964 21.7533 22.3249C21.0442 21.5848 19.7932 20.429 19.2327 19.6795L19.2915 19.9566Z" fill="#FDF300"/>
<path fill-rule="evenodd" clip-rule="evenodd" d="M57.2275 24.0381C57.2275 25.4836 58.3267 26.759 59.457 26.759H60.3488C61.4388 26.759 62.5783 25.3072 62.5783 24.1892C62.5783 22.9453 61.51 21.4683 60.3488 21.4683H59.457C58.3174 21.4683 57.2275 22.8162 57.2275 24.0381Z" fill="white"/>
<path fill-rule="evenodd" clip-rule="evenodd" d="M31.4331 25.6504C36.047 24.5829 40.0199 28.1257 40.7631 31.8576C41.6239 36.1783 38.7751 40.5904 34.6381 41.4281C31.4146 42.08 28.0641 40.5589 26.4074 37.9954C24.565 35.1422 24.6703 31.3002 26.5932 28.8595C27.3674 27.8801 27.4788 27.6282 28.6184 26.8409C29.3987 26.3055 30.3308 25.9055 31.4331 25.6504ZM29.0952 26.1291L28.9869 26.2425C27.7544 26.907 26.6366 28.0691 25.9182 29.2847C25.6581 29.9712 25.9306 29.3382 25.6921 29.6437C25.2307 31.0514 24.7786 31.7064 24.7817 33.5613C24.7848 35.3375 25.206 36.0429 25.6828 37.4254C25.7974 37.5419 25.8562 37.4947 25.9337 37.7876C26.9246 39.3905 27.2992 39.7212 28.8506 40.7384L29.1819 40.9746C32.4798 42.3193 33.5729 42.1146 36.8088 40.9777L37.1432 40.7447C38.6295 39.7621 39.1157 39.3307 40.057 37.8002C40.1314 37.4978 40.1964 37.5419 40.311 37.416C40.8095 36.0681 41.2028 35.2902 41.2059 33.5582C41.209 31.6875 40.7755 31.0577 40.3017 29.6311L40.054 29.2658C39.4563 28.1163 38.162 26.866 37.0069 26.2362L36.8955 26.1228C35.4711 25.6599 34.8796 25.1812 32.9907 25.1812C31.2164 25.1875 30.4608 25.6882 29.0952 26.1291Z" fill="#DCD507"/>
<path fill-rule="evenodd" clip-rule="evenodd" d="M24.4504 42.228L28.5193 41.0754C28.8289 40.9337 28.7453 41.0187 28.8537 40.7415C27.3023 39.7243 26.9277 39.3937 25.9368 37.7907C25.5218 38.0868 24.4752 41.5068 24.4504 42.228Z" fill="#FEFEFF"/>
<path fill-rule="evenodd" clip-rule="evenodd" d="M37.3847 26.0095L37.0131 26.2394C38.1682 26.866 39.4625 28.1194 40.0602 29.2689C40.7662 28.5981 41.0387 26.1512 41.6053 25.156C41.3948 24.8537 41.946 24.7907 41.1904 24.9513L37.3847 26.0095Z" fill="#FEFEFF"/>
<path fill-rule="evenodd" clip-rule="evenodd" d="M37.1463 40.7447C37.3414 41.2265 39.862 41.7084 40.4132 41.8879C40.7909 42.0107 41.2709 42.2311 41.6053 42.0548L40.2366 37.7907L40.0601 37.8002C39.1188 39.3338 38.6326 39.7653 37.1463 40.7447Z" fill="#FEFEFF"/>
<path fill-rule="evenodd" clip-rule="evenodd" d="M25.7757 29.2815L25.9182 29.2878C26.6366 28.0722 27.7544 26.9101 28.9869 26.2457C28.4295 25.9307 25.0697 24.9513 24.3854 24.9356L25.7757 29.2815Z" fill="#FEFEFF"/>
</svg>
