<svg width="301" height="45" viewBox="0 0 301 45" fill="none" xmlns="http://www.w3.org/2000/svg">
<g clip-path="url(#clip0_371_193)">
<path fill-rule="evenodd" clip-rule="evenodd" d="M92.8815 15.4478H84.0693V12.7612H92.8815C95.48 12.7612 93.1216 12.9711 94.9151 12.0896C94.8586 14.2444 95.127 15.4478 92.8815 15.4478ZM80.6659 5.37314C80.6659 9.17911 87.8399 6.80038 92.246 7.33209C94.8445 7.65392 94.2514 7.02426 94.901 9.40299C86.7525 9.40299 79.988 7.45803 79.988 14.7761C79.988 20.2612 83.3773 18.806 94.2231 18.806C96.059 18.806 96.0873 18.4841 97.6125 18.1343C99.1942 14.8601 98.9682 13.7966 98.9682 10.0746C98.9682 1.90299 92.006 3.35821 82.6995 3.35821C81.146 3.35821 80.6659 3.81997 80.6659 5.37314Z" fill="white"/>
<path fill-rule="evenodd" clip-rule="evenodd" d="M172.192 15.4478H163.379V12.7612H172.192C174.79 12.7612 172.432 12.9711 174.225 12.0895C174.183 14.2444 174.451 15.4478 172.192 15.4478ZM159.99 5.37313V7.38806C171.599 7.38806 173.35 6.14272 174.225 9.40298C166.077 9.40298 159.312 7.45802 159.312 14.7761C159.312 20.2612 162.702 18.806 173.547 18.806C179.027 18.806 178.292 13.2229 178.292 9.40298C178.292 2.00093 169.494 3.35821 162.024 3.35821C160.456 3.35821 159.99 3.81996 159.99 5.37313Z" fill="white"/>
<path fill-rule="evenodd" clip-rule="evenodd" d="M33.2154 15.4478H22.3695V7.38806H33.2154C33.7661 9.71082 34.5005 12.6073 33.2154 15.4478ZM23.7252 4.02985C17.3279 4.02985 18.3023 7.01026 18.3023 14.1045C18.3023 20.4851 23.7817 18.806 33.8932 18.806C38.4264 18.806 37.2825 11.6978 37.2825 7.38806C37.2825 4.6875 34.8253 4.02985 31.8596 4.02985C32.2268 2.44869 32.4951 2.04291 32.5375 0H29.1482C29.2047 2.64459 28.9646 1.58116 29.826 3.35821H25.7588C26.6203 1.58116 26.3802 2.64459 26.4367 0H23.0474C23.0898 2.04291 23.3581 2.44869 23.7252 4.02985Z" fill="white"/>
<path fill-rule="evenodd" clip-rule="evenodd" d="M71.8536 15.4478C61.4456 15.4478 63.0414 16.9869 63.0414 7.38806H73.8872C74.3391 9.30503 76.0761 15.4478 71.8536 15.4478ZM58.9742 8.73134C58.9742 15.4478 57.5478 18.6101 66.4448 18.792C74.1414 18.9459 69.4528 22.8358 74.5651 22.8358C78.0956 22.8358 75.2147 20.8909 74.5651 18.1343C78.9288 17.1269 77.9544 15.2798 77.9544 7.38806C77.9544 2.36473 58.9742 0.713614 58.9742 8.73134Z" fill="white"/>
<path fill-rule="evenodd" clip-rule="evenodd" d="M151.178 15.4478H143.043V7.38806H151.178C153.268 7.38806 153.889 9.36101 153.889 11.4179C153.889 13.4748 153.254 15.4478 151.178 15.4478ZM139.654 5.37313V18.806C144.569 18.806 153.367 19.6175 155.598 17.8125C157.942 15.9235 157.279 12.3414 157.279 8.73134C157.279 2.15485 148.142 3.35821 141.688 3.35821C140.12 3.35821 139.654 3.81996 139.654 5.37313Z" fill="white"/>
<path fill-rule="evenodd" clip-rule="evenodd" d="M0 9.40298V18.806H4.06719V12.7612C6.1149 13.7407 8.54391 13.4888 11.5661 13.4888C15.3932 13.4748 16.1134 13.8386 16.9466 10.7463C14.0939 9.38899 8.07788 10.0746 4.06719 10.0746C4.64619 3.20429 16.9466 11.1101 16.9466 5.37313C16.9466 2.57462 14.5882 3.35821 8.81224 3.35821C3.78474 3.35821 0 4.39365 0 9.40298Z" fill="white"/>
<path fill-rule="evenodd" clip-rule="evenodd" d="M127.453 7.38806C129.204 8.66138 130.277 11.0261 130.842 13.4328H124.741C125.278 11.1241 126.436 9.29105 127.453 7.38806ZM117.285 18.806C125.278 18.806 120.053 16.1194 124.063 16.1194H131.52C135.531 16.1194 130.305 18.806 138.298 18.806C137.578 17.4627 136.971 16.1054 136.279 14.7621C135.375 13.0271 134.768 12.3554 133.779 10.5224C132.41 7.98974 130.927 3.73601 128.046 3.51213C124.473 3.23228 123.385 7.65392 121.987 10.0466C120.307 12.9571 118.909 15.7556 117.285 18.806Z" fill="white"/>
<path fill-rule="evenodd" clip-rule="evenodd" d="M47.4505 18.806C52.831 18.806 51.207 17.1828 54.5116 11.6978C55.9803 9.26305 58.028 6.52052 58.2963 3.3582C53.1982 3.3582 54.5822 4.42163 52.3227 8.18563C50.9104 10.5364 49.47 12.5933 48.8062 15.4478C45.8406 13.4748 44.9791 9.02518 42.3242 5.07928C40.7142 2.70055 41.7028 3.3582 37.9604 3.3582C38.1581 5.611 44.5978 18.806 47.4505 18.806Z" fill="white"/>
<path fill-rule="evenodd" clip-rule="evenodd" d="M101.016 5.37314C101.016 10.6483 100.423 14.1045 102.372 18.1343C104.363 18.5961 115.548 20.2612 116.875 17.7146C117.779 15.9935 116.056 15.5317 113.994 15.3918C109.362 15.07 105.479 17.2668 105.012 12.8312C104.659 9.44497 106.622 3.35822 103.049 3.35822C101.482 3.35822 101.016 3.81997 101.016 5.37314Z" fill="white"/>
<path fill-rule="evenodd" clip-rule="evenodd" d="M294.221 11.4179H286.765V7.38805H296.255V9.40298C296.255 10.9562 295.775 11.4179 294.221 11.4179ZM282.698 5.37313V18.806H286.765V14.7761C291.609 14.7761 294.913 13.8386 296.255 18.806H301C299.955 17.2528 298.091 15.2099 297.611 13.4328C300.732 12.6073 300.322 12.0336 300.322 8.0597C300.322 1.95895 291.75 3.3582 284.731 3.3582C283.164 3.3582 282.698 3.81996 282.698 5.37313Z" fill="white"/>
<path fill-rule="evenodd" clip-rule="evenodd" d="M216.931 7.38805C217.594 9.87872 218.964 10.5504 219.642 13.4328H213.541C214.106 11.0261 215.194 8.66137 216.931 7.38805ZM206.085 18.806C214.078 18.806 208.853 16.1194 212.864 16.1194H220.32C224.331 16.1194 219.106 18.806 227.099 18.806C224.811 14.5242 219.953 3.76399 216.846 3.51212C213.019 3.21828 208.867 13.6007 206.085 18.806Z" fill="white"/>
<path fill-rule="evenodd" clip-rule="evenodd" d="M270.496 7.38805H271.852C272.388 9.69682 273.546 11.5298 274.563 13.4328H267.785C268.801 11.5298 269.945 9.69682 270.496 7.38805ZM261.006 18.806C265.003 18.806 264.946 19.5616 265.751 16.1194H276.597C277.402 19.5616 277.345 18.806 281.342 18.806L275.001 6.28264C269.818 -2.16886 265.497 9.9207 265.285 10.2985C263.647 13.1949 261.797 15.3918 261.006 18.806Z" fill="white"/>
<path fill-rule="evenodd" clip-rule="evenodd" d="M187.783 5.37282V18.8057H191.172C191.172 11.6555 190 12.7609 199.306 12.7609C201.947 12.7609 201.34 14.482 201.34 18.8057H204.729C204.729 3.30192 205.986 3.45584 201.34 3.35789V9.40267C189.251 9.40267 191.624 11.0258 191.2 7.41573C190.791 3.93159 192.4 4.22543 189.124 3.35789C187.994 4.14148 187.783 3.45584 187.783 5.37282Z" fill="white"/>
<path fill-rule="evenodd" clip-rule="evenodd" d="M227.099 5.37282C227.099 21.1844 227.268 18.8057 243.367 18.8057C243.212 11.6415 236.236 17.6023 232.154 15.1396C228.963 13.2086 233.877 3.35789 229.132 3.35789C227.579 3.35789 227.099 3.81965 227.099 5.37282Z" fill="white"/>
<path fill-rule="evenodd" clip-rule="evenodd" d="M244.723 15.4474C244.723 20.2749 253.719 18.8057 260.314 18.8057V15.4474C246.404 15.4474 247.887 16.7068 248.141 8.70304C248.282 4.08551 248.946 3.45584 244.723 3.35789V15.4474Z" fill="white"/>
<path fill-rule="evenodd" clip-rule="evenodd" d="M217.609 41.6418H208.796C208.839 39.4869 208.57 38.2836 210.83 38.2836H219.642C219.6 40.4384 219.868 41.6418 217.609 41.6418ZM218.781 45H208.118C206.198 45 202.413 42.0336 206.763 35.597H219.642V33.5821C216.917 33.5821 214.205 33.5541 211.48 33.6101C208.457 33.6661 205.407 34.4077 205.407 31.5672C205.407 30.014 205.873 29.5522 207.441 29.5522C215.293 29.5522 223.709 28.0411 223.709 34.9254C223.709 42.7192 223.257 44.6082 218.781 45Z" fill="white"/>
<path fill-rule="evenodd" clip-rule="evenodd" d="M90.1701 32.2388V45H94.2373V33.5821L101.369 42.6353C102.838 44.6082 102.711 44.944 104.532 45H106.905H107.117C110.562 45 109.15 38.8293 109.15 29.5523C104.716 29.5523 105.012 29.5383 105.012 34.2118C105.012 37.1222 104.801 39.0112 105.761 40.9842C103.516 40.3965 102.329 37.7939 100.239 35.0373C99.2789 33.764 98.5869 32.7985 97.556 31.6511C94.2938 27.9151 90.1701 29.5243 90.1701 32.2388Z" fill="white"/>
<path fill-rule="evenodd" clip-rule="evenodd" d="M72.5315 38.2836C72.5315 32.7565 72.6162 32.9105 80.6659 32.9105C82.5017 32.9105 82.53 33.2323 84.0552 33.5821C84.0552 44.1744 84.6059 41.6418 73.2093 41.6418C72.8563 40.1446 72.5315 40.1026 72.5315 38.2836ZM83.3914 45H73.2658C70.0742 44.4963 68.4643 42.6632 68.4643 36.9403C68.4643 35.639 69.3116 32.3927 69.8624 31.6091C71.7265 28.9785 88.1224 26.9077 88.1224 34.9254C88.1365 38.8433 89.1956 45 83.3914 45Z" fill="white"/>
<path fill-rule="evenodd" clip-rule="evenodd" d="M237.267 37.6119H229.81V32.9105C238.608 32.9105 239.3 32.0849 239.3 35.597C239.3 37.1502 238.834 37.6119 237.267 37.6119ZM225.743 31.5672V45H229.81V40.2985C234.273 40.2985 237.69 39.0392 239.3 45H244.045C243 43.4468 241.136 41.4039 240.656 39.6269C244.653 38.5634 243.424 34.0299 242.69 30.8955C238.425 28.8666 233.567 29.5523 227.777 29.5523C226.223 29.5523 225.743 30.028 225.743 31.5672Z" fill="white"/>
<path fill-rule="evenodd" clip-rule="evenodd" d="M166.769 40.2985C166.769 43.5448 168.421 44.6642 171.147 45H180.34C186.963 45 185.763 37.7799 185.763 31.5672C185.763 29.1744 184.436 29.5522 181.696 29.5522C181.696 43.8806 183.715 41.6418 172.884 41.6418C166.628 41.6418 176.231 29.5522 166.783 29.5522V40.2985H166.769Z" fill="white"/>
<path fill-rule="evenodd" clip-rule="evenodd" d="M111.184 31.5672C111.184 43.0271 110.986 44.7761 117.779 45H125.419C131.746 45 130.164 38.6194 130.164 29.5522H126.775C126.775 43.3209 127.523 41.6418 117.285 41.6418C114.107 41.6418 115.251 37.514 115.251 29.5522C112.497 29.5522 111.184 29.1884 111.184 31.5672Z" fill="white"/>
<path fill-rule="evenodd" clip-rule="evenodd" d="M50.8398 31.5672C50.8398 43.139 50.1478 44.8041 52.4215 45H54.907V38.9552C66.2895 38.9552 57.915 45 68.4643 45C67.2639 42.7612 64.383 38.9412 62.3635 37.6119C63.4227 36.0448 63.917 35.2752 65.2444 33.75C66.4589 32.3368 67.278 31.4832 67.7864 29.5522C57.8021 29.5522 66.1906 35.597 54.907 35.597V29.5522C52.1673 29.5522 50.8398 29.1884 50.8398 31.5672Z" fill="white"/>
<path fill-rule="evenodd" clip-rule="evenodd" d="M187.783 39.6269C187.783 43.3629 189.562 44.6222 192.499 45H202.018C203.924 45 203.275 44.7062 204.051 43.6567C203.331 40.9702 203.105 41.5299 199.363 41.5858C197.301 41.6278 193.615 42.1875 192.457 41.0401C189.054 37.6679 196.468 29.5522 187.783 29.5522V39.6269Z" fill="white"/>
<path fill-rule="evenodd" clip-rule="evenodd" d="M132.876 37.6119C132.876 40.8162 132.452 37.0383 132.607 40.0327C132.791 43.3629 134.372 44.5942 137.126 45H148.452V41.6418H136.929C135.771 36.7444 136.251 35.4011 136.251 29.5522H132.861V37.6119H132.876Z" fill="white"/>
<path fill-rule="evenodd" clip-rule="evenodd" d="M149.822 40.2985C149.822 43.4328 151.432 44.6082 154.172 45H165.413V41.6418C151.559 41.6418 153.211 43.6008 153.211 29.5522H149.822V40.2985Z" fill="white"/>
<path fill-rule="evenodd" clip-rule="evenodd" d="M245.401 45H249.468V31.5672C249.468 30.014 249.002 29.5522 247.435 29.5522H245.401V45Z" fill="white"/>
<path fill-rule="evenodd" clip-rule="evenodd" d="M115.929 28.8806C119.925 28.8806 119.996 28.9226 119.996 26.194C116.564 24.2911 115.929 25.9702 115.929 28.8806Z" fill="white"/>
<path fill-rule="evenodd" clip-rule="evenodd" d="M245.401 28.8806C249.398 28.8806 249.468 28.9226 249.468 26.194C246.051 24.2911 245.401 25.9702 245.401 28.8806Z" fill="white"/>
<path fill-rule="evenodd" clip-rule="evenodd" d="M176.937 26.8657V28.209C178.589 29.1325 178.194 28.8806 181.004 28.8806C180.877 23.0597 176.937 25.9282 176.937 26.8657Z" fill="white"/>
<path fill-rule="evenodd" clip-rule="evenodd" d="M81.3437 28.8806H83.3773C83.3067 25.5644 83.3349 25.5924 79.988 25.5224C79.8044 27.7192 78.7029 28.8806 81.3437 28.8806Z" fill="white"/>
<path fill-rule="evenodd" clip-rule="evenodd" d="M122.03 28.8806H125.419V25.5224C122.143 25.5924 122.03 25.5644 122.03 28.8806Z" fill="white"/>
<path fill-rule="evenodd" clip-rule="evenodd" d="M171.514 28.8806H174.903C174.833 25.5644 174.861 25.5924 171.514 25.5224V28.8806Z" fill="white"/>
<path fill-rule="evenodd" clip-rule="evenodd" d="M73.8872 28.8806H77.2765C77.2059 25.5644 77.2342 25.5924 73.8872 25.5224V28.8806Z" fill="white"/>
</g>
<defs>
<clipPath id="clip0_371_193">
<rect width="301" height="45" fill="white"/>
</clipPath>
</defs>
</svg>
